<?xml version="1.0" encoding="UTF-8"?>
<svg width="512" height="512" viewBox="0 0 512 512" fill="none" xmlns="http://www.w3.org/2000/svg">
  <!-- 渐变背景 -->
  <defs>
    <linearGradient id="paint0_linear" x1="0" y1="0" x2="512" y2="512" gradientUnits="userSpaceOnUse">
      <stop offset="0" stop-color="#9448bc"/>
      <stop offset="1" stop-color="#7c71f2"/>
    </linearGradient>
  </defs>
  
  <!-- 圆形背景 -->
  <circle cx="256" cy="256" r="256" fill="url(#paint0_linear)"/>
  <circle cx="256" cy="256" r="235" fill="white" fill-opacity="0.1"/>
  
  <!-- 左侧对话泡泡 -->
  <path d="M150 220C150 198.461 167.461 181 189 181H211C232.539 181 250 198.461 250 220V242C250 263.539 232.539 281 211 281H189L169 301V281C156.85 281 150 269.151 150 257V220Z" fill="white" stroke="#9448bc" stroke-width="10"/>
  
  <!-- 右侧对话泡泡 -->
  <path d="M262 270C262 248.461 279.461 231 301 231H323C344.539 231 362 248.461 362 270V292C362 313.539 344.539 331 323 331H301L281 351V331C268.85 331 262 319.151 262 307V270Z" fill="white" stroke="#7c71f2" stroke-width="10"/>
  
  <!-- 问号符号 - 左泡泡 -->
  <text x="195" y="245" font-family="Arial, sans-serif" font-size="70" font-weight="bold" fill="#9448bc">?</text>
  
  <!-- 惊叹号符号 - 右泡泡 -->
  <text x="307" y="295" font-family="Arial, sans-serif" font-size="70" font-weight="bold" fill="#7c71f2">!</text>
  
  <!-- 文字 - 疯狂猜词 (简化为"猜词"，以适应小图标) -->
  <text x="256" y="400" font-family="'Microsoft YaHei', Arial, sans-serif" font-size="55" font-weight="bold" fill="white" text-anchor="middle">猜词</text>
  
  <!-- 小装饰圆圈 -->
  <circle cx="170" cy="160" r="15" fill="white" fill-opacity="0.6"/>
  <circle cx="200" cy="140" r="8" fill="white" fill-opacity="0.4"/>
  <circle cx="350" cy="380" r="12" fill="white" fill-opacity="0.5"/>
  <circle cx="380" cy="350" r="6" fill="white" fill-opacity="0.3"/>
</svg> 